<?xml version="1.0" encoding="utf-8"?>
<!-- Generator: Adobe Illustrator 16.0.0, SVG Export Plug-In . SVG Version: 6.00 Build 0)  -->
<!DOCTYPE svg PUBLIC "-//W3C//DTD SVG 1.1//EN" "http://www.w3.org/Graphics/SVG/1.1/DTD/svg11.dtd">
<svg version="1.1" id="Layer_1" xmlns="http://www.w3.org/2000/svg" xmlns:xlink="http://www.w3.org/1999/xlink" x="0px" y="0px"
	 width="158px" height="46px" viewBox="0 0 158 46" enable-background="new 0 0 158 46" xml:space="preserve">
<text transform="matrix(1 0 0 1 48.1265 37.917)" fill="#A5CD39" font-family="'Montserrat-Bold'" font-size="21.0268">Sarbismol</text>
<g>
	<path fill-rule="evenodd" clip-rule="evenodd" fill="#004E7E" d="M30.966,3.953l1.894,12.833
		c-10.317-2.01-22.361-2.557-28.416,2.337c-5.19,4.194-5.036,12.561,4.702,18.889c-11.558-8.639-6.796-17.23,3.273-18.963
		c8.448-1.454,20.221,1.123,29.116,4.351L33.541,41.34l-19.818-2.039l20.825,4.293l12.024-23.006
		c-2.757-1.06-6.596-2.236-10.891-3.208L30.966,3.953z"/>
	<path fill-rule="evenodd" clip-rule="evenodd" fill="#A5CD39" d="M31.536,15.385l-10.249-1.724l9.644-10.592L18.143,13.132
		l-10.04-1.688l0.435,4.673C13.966,13.372,24.913,14.516,31.536,15.385z"/>
	<path fill-rule="evenodd" clip-rule="evenodd" fill="#A5CD39" d="M12.388,19.948c-2.11,0.351-5.323,1.466-6.936,2.825
		c-3.645,3.068-3.576,9.139,3.196,13.686C1.426,30.871,3.42,25.25,9.013,23.223L9.944,38.02l15.547,1.795l6.244,0.678L11.544,36.43
		L12.388,19.948z"/>
	<ellipse fill-rule="evenodd" clip-rule="evenodd" fill="#D1D2D3" cx="23.979" cy="45.314" rx="12.661" ry="0.686"/>
	<path fill-rule="evenodd" clip-rule="evenodd" fill="#A5CD39" d="M17.033,35.781l3.388-13.5c-0.682-0.048-1.356-0.083-2.023-0.102
		L17.033,35.781z"/>
	<path fill-rule="evenodd" clip-rule="evenodd" fill="#A5CD39" d="M23.152,36.539l3.385-13.495c-0.667-0.115-1.335-0.221-2-0.317
		L23.152,36.539z"/>
	<path fill-rule="evenodd" clip-rule="evenodd" fill="#A5CD39" d="M29.037,37.918l3.414-13.608c-0.663-0.168-1.331-0.328-2.001-0.48
		L29.037,37.918z"/>
</g>
</svg>
