<svg xmlns="http://www.w3.org/2000/svg" viewBox="0 0 52.4 37.46"><defs><style>.cls-1{fill:#1b1b1b;}</style></defs><g id="Layer_2" data-name="Layer 2"><g id="Layer_1-2" data-name="Layer 1"><path class="cls-1" d="M6.88,4.37H2.19A2.19,2.19,0,1,1,2.19,0H6.88a2.19,2.19,0,1,1,0,4.37Z"/><path class="cls-1" d="M16.37,30.21a2.18,2.18,0,0,1-2.05-1.44L4.85,2.94A2.19,2.19,0,1,1,9,1.43l9.47,25.84a2.19,2.19,0,0,1-1.3,2.8A2.27,2.27,0,0,1,16.37,30.21Z"/><path class="cls-1" d="M42.35,30.21H16.52a2.19,2.19,0,1,1,0-4.38H42.35a2.19,2.19,0,0,1,0,4.38Z"/><path class="cls-1" d="M39.19,23.21H20.57a2.19,2.19,0,1,1,0-4.37H39.19a2.19,2.19,0,1,1,0,4.37Z"/><path class="cls-1" d="M20.57,23.21a2.18,2.18,0,0,1-2.05-1.43l-5-13.64a2.19,2.19,0,0,1,4.11-1.5l5,13.63a2.18,2.18,0,0,1-1.3,2.81A2.15,2.15,0,0,1,20.57,23.21Z"/><path class="cls-1" d="M50.22,9.58H15.57a2.19,2.19,0,0,1,0-4.38H50.22a2.19,2.19,0,0,1,0,4.38Z"/><path class="cls-1" d="M42.35,30.21a2.2,2.2,0,0,1-2.05-2.94l5.06-13.83A2.19,2.19,0,0,1,49.47,15L44.4,28.77A2.18,2.18,0,0,1,42.35,30.21Z"/><path class="cls-1" d="M47.42,16.38H23.92a2.19,2.19,0,1,1,0-4.37h23.5a2.19,2.19,0,0,1,0,4.37Z"/><path class="cls-1" d="M24.29,34.9a2.56,2.56,0,1,1-2.56-2.55A2.56,2.56,0,0,1,24.29,34.9Z"/><path class="cls-1" d="M39.67,34.9a2.56,2.56,0,1,1-2.55-2.55A2.55,2.55,0,0,1,39.67,34.9Z"/></g></g></svg>